<mxfile host="app.diagrams.net" modified="2024-05-22T11:34:18.815Z" agent="Mozilla/5.0 (X11; Linux x86_64) AppleWebKit/537.36 (KHTML, like Gecko) Chrome/125.0.0.0 Safari/537.36" etag="F5Xx1RjSfWhhjtIou0oE" version="24.3.1" type="device">
  <diagram name="1 oldal" id="iFVySu6DtbfAF9OFb-0G">
    <mxGraphModel dx="1434" dy="788" grid="1" gridSize="10" guides="1" tooltips="1" connect="1" arrows="1" fold="1" page="1" pageScale="1" pageWidth="827" pageHeight="1169" math="0" shadow="0">
      <root>
        <mxCell id="0" />
        <mxCell id="1" parent="0" />
        <mxCell id="2zB9ZfUn6aH4xh7qQFIy-9" value="Elem" style="swimlane;fontStyle=1;align=center;verticalAlign=top;childLayout=stackLayout;horizontal=1;startSize=26;horizontalStack=0;resizeParent=1;resizeParentMax=0;resizeLast=0;collapsible=1;marginBottom=0;whiteSpace=wrap;html=1;" vertex="1" parent="1">
          <mxGeometry x="130" y="160" width="160" height="150" as="geometry">
            <mxRectangle x="130" y="160" width="70" height="30" as="alternateBounds" />
          </mxGeometry>
        </mxCell>
        <mxCell id="2zB9ZfUn6aH4xh7qQFIy-10" value="-ertek:string&lt;div&gt;-szuloElem: Object&lt;/div&gt;&lt;div&gt;-divElem: Object&lt;/div&gt;&lt;div&gt;-index: int&lt;/div&gt;" style="text;strokeColor=none;fillColor=none;align=left;verticalAlign=top;spacingLeft=4;spacingRight=4;overflow=hidden;rotatable=0;points=[[0,0.5],[1,0.5]];portConstraint=eastwest;whiteSpace=wrap;html=1;" vertex="1" parent="2zB9ZfUn6aH4xh7qQFIy-9">
          <mxGeometry y="26" width="160" height="74" as="geometry" />
        </mxCell>
        <mxCell id="2zB9ZfUn6aH4xh7qQFIy-11" value="" style="line;strokeWidth=1;fillColor=none;align=left;verticalAlign=middle;spacingTop=-1;spacingLeft=3;spacingRight=3;rotatable=0;labelPosition=right;points=[];portConstraint=eastwest;strokeColor=inherit;" vertex="1" parent="2zB9ZfUn6aH4xh7qQFIy-9">
          <mxGeometry y="100" width="160" height="8" as="geometry" />
        </mxCell>
        <mxCell id="2zB9ZfUn6aH4xh7qQFIy-12" value="-megjelenit():void&lt;div&gt;-trigger():void&lt;/div&gt;" style="text;strokeColor=none;fillColor=none;align=left;verticalAlign=top;spacingLeft=4;spacingRight=4;overflow=hidden;rotatable=0;points=[[0,0.5],[1,0.5]];portConstraint=eastwest;whiteSpace=wrap;html=1;" vertex="1" parent="2zB9ZfUn6aH4xh7qQFIy-9">
          <mxGeometry y="108" width="160" height="42" as="geometry" />
        </mxCell>
        <mxCell id="2zB9ZfUn6aH4xh7qQFIy-13" value="Jatekter&lt;div&gt;&lt;br&gt;&lt;/div&gt;" style="swimlane;fontStyle=1;align=center;verticalAlign=top;childLayout=stackLayout;horizontal=1;startSize=26;horizontalStack=0;resizeParent=1;resizeParentMax=0;resizeLast=0;collapsible=1;marginBottom=0;whiteSpace=wrap;html=1;" vertex="1" parent="1">
          <mxGeometry x="380" y="150" width="160" height="60" as="geometry">
            <mxRectangle x="380" y="150" width="80" height="40" as="alternateBounds" />
          </mxGeometry>
        </mxCell>
        <mxCell id="2zB9ZfUn6aH4xh7qQFIy-14" value="-jatekLista[]:sting" style="text;strokeColor=none;fillColor=none;align=left;verticalAlign=top;spacingLeft=4;spacingRight=4;overflow=hidden;rotatable=0;points=[[0,0.5],[1,0.5]];portConstraint=eastwest;whiteSpace=wrap;html=1;" vertex="1" parent="2zB9ZfUn6aH4xh7qQFIy-13">
          <mxGeometry y="26" width="160" height="26" as="geometry" />
        </mxCell>
        <mxCell id="2zB9ZfUn6aH4xh7qQFIy-15" value="" style="line;strokeWidth=1;fillColor=none;align=left;verticalAlign=middle;spacingTop=-1;spacingLeft=3;spacingRight=3;rotatable=0;labelPosition=right;points=[];portConstraint=eastwest;strokeColor=inherit;" vertex="1" parent="2zB9ZfUn6aH4xh7qQFIy-13">
          <mxGeometry y="52" width="160" height="8" as="geometry" />
        </mxCell>
        <mxCell id="2zB9ZfUn6aH4xh7qQFIy-17" value="AllapotKezelo" style="swimlane;fontStyle=1;align=center;verticalAlign=top;childLayout=stackLayout;horizontal=1;startSize=26;horizontalStack=0;resizeParent=1;resizeParentMax=0;resizeLast=0;collapsible=1;marginBottom=0;whiteSpace=wrap;html=1;" vertex="1" parent="1">
          <mxGeometry x="630" y="150" width="160" height="130" as="geometry" />
        </mxCell>
        <mxCell id="2zB9ZfUn6aH4xh7qQFIy-18" value="-jatekLista[]:string&lt;div&gt;-lepes:int&lt;/div&gt;" style="text;strokeColor=none;fillColor=none;align=left;verticalAlign=top;spacingLeft=4;spacingRight=4;overflow=hidden;rotatable=0;points=[[0,0.5],[1,0.5]];portConstraint=eastwest;whiteSpace=wrap;html=1;" vertex="1" parent="2zB9ZfUn6aH4xh7qQFIy-17">
          <mxGeometry y="26" width="160" height="34" as="geometry" />
        </mxCell>
        <mxCell id="2zB9ZfUn6aH4xh7qQFIy-19" value="" style="line;strokeWidth=1;fillColor=none;align=left;verticalAlign=middle;spacingTop=-1;spacingLeft=3;spacingRight=3;rotatable=0;labelPosition=right;points=[];portConstraint=eastwest;strokeColor=inherit;" vertex="1" parent="2zB9ZfUn6aH4xh7qQFIy-17">
          <mxGeometry y="60" width="160" height="70" as="geometry" />
        </mxCell>
        <mxCell id="2zB9ZfUn6aH4xh7qQFIy-26" style="edgeStyle=orthogonalEdgeStyle;rounded=0;orthogonalLoop=1;jettySize=auto;html=1;entryX=0;entryY=0.5;entryDx=0;entryDy=0;endSize=10;endArrow=open;endFill=0;" edge="1" parent="1" source="2zB9ZfUn6aH4xh7qQFIy-10" target="2zB9ZfUn6aH4xh7qQFIy-13">
          <mxGeometry relative="1" as="geometry" />
        </mxCell>
        <mxCell id="2zB9ZfUn6aH4xh7qQFIy-27" style="edgeStyle=orthogonalEdgeStyle;rounded=0;orthogonalLoop=1;jettySize=auto;html=1;entryX=-0.012;entryY=0.206;entryDx=0;entryDy=0;entryPerimeter=0;endArrow=open;endFill=0;endSize=10;" edge="1" parent="1" source="2zB9ZfUn6aH4xh7qQFIy-14" target="2zB9ZfUn6aH4xh7qQFIy-18">
          <mxGeometry relative="1" as="geometry" />
        </mxCell>
      </root>
    </mxGraphModel>
  </diagram>
</mxfile>
